<svg width="18" height="19" viewBox="0 0 18 19" fill="none" xmlns="http://www.w3.org/2000/svg">
<path d="M10.4417 17C10.2952 17.2526 10.0849 17.4622 9.83185 17.6079C9.57884 17.7537 9.29198 17.8304 9 17.8304C8.70802 17.8304 8.42116 17.7537 8.16814 17.6079C7.91513 17.4622 7.70484 17.2526 7.55833 17M14 6.16666C14 4.84057 13.4732 3.5688 12.5355 2.63112C11.5979 1.69344 10.3261 1.16666 9 1.16666C7.67392 1.16666 6.40215 1.69344 5.46447 2.63112C4.52678 3.5688 4 4.84057 4 6.16666C4 12 1.5 13.6667 1.5 13.6667H16.5C16.5 13.6667 14 12 14 6.16666Z" stroke="#5D6679" stroke-width="1.2" stroke-linecap="round" stroke-linejoin="round"/>
</svg>
