<svg width="22" height="20" viewBox="0 0 22 20" fill="none" xmlns="http://www.w3.org/2000/svg">
<path d="M6.187 19.3776L6.18698 19.3776L6.18863 19.3793C6.21922 19.4098 6.25378 19.4368 6.2959 19.4555C6.33846 19.4744 6.38353 19.4826 6.43226 19.4826H20.753C20.8498 19.4826 20.9382 19.4499 21.0028 19.3854C21.0673 19.321 21.1 19.2325 21.1 19.1356L21.0998 4.81485C21.0998 4.6871 21.0357 4.57088 20.9191 4.52642L14.2813 0.592819C14.2551 0.557761 14.2202 0.537494 14.1847 0.527385C14.1493 0.517286 14.1121 0.517356 14.0901 0.517396L14.0863 0.517401H1.24698C1.15022 0.517401 1.06177 0.550072 0.997252 0.614554C0.932731 0.679043 0.9 0.767506 0.9 0.864381V13.7037C0.9 13.7524 0.908209 13.7974 0.927092 13.84C0.945613 13.8817 0.972211 13.916 1.0025 13.9465C1.00279 13.9468 1.00307 13.947 1.00335 13.9473L6.187 19.3776ZM20.406 18.7886H6.77908V5.1617H11.5173V8.76534C11.5173 8.86211 11.5499 8.95056 11.6144 9.01507C11.6789 9.07959 11.7674 9.11232 11.8643 9.11232H15.0741C15.1709 9.11232 15.2593 9.07965 15.3239 9.01517C15.3884 8.95068 15.4211 8.86222 15.4211 8.76534L15.4209 5.1617H20.406L20.406 18.7886ZM12.2111 8.41843V5.16179H14.7272V8.41843H12.2111ZM10.5402 1.21114H13.9849L19.4748 4.46779H15.4253L10.5402 1.21114ZM11.9685 4.46796L7.08336 1.21129L9.29079 1.21114L14.1759 4.46781L11.9685 4.46796ZM6.54007 4.46796L2.28304 1.21114L5.83396 1.21114L10.7191 4.4678L6.54007 4.46796ZM1.59407 13.5647V1.56023L6.08535 4.98775V18.2688L1.59407 13.5647Z" fill="#5D6679" stroke="#5D6679" stroke-width="0.2"/>
</svg>
