<svg width="80" height="15" viewBox="0 0 80 15" fill="none" xmlns="http://www.w3.org/2000/svg">
<path d="M0.232955 11V0.818182H3.6733C4.47206 0.818182 5.125 0.962358 5.6321 1.25071C6.14252 1.53575 6.52036 1.92188 6.76562 2.40909C7.01089 2.89631 7.13352 3.43987 7.13352 4.03977C7.13352 4.63968 7.01089 5.1849 6.76562 5.67543C6.52367 6.16596 6.14915 6.55705 5.64205 6.84872C5.13494 7.13707 4.48532 7.28125 3.69318 7.28125H1.22727V6.1875H3.65341C4.20028 6.1875 4.63944 6.09304 4.97088 5.90412C5.30232 5.7152 5.54261 5.45999 5.69176 5.13849C5.84422 4.81368 5.92045 4.44744 5.92045 4.03977C5.92045 3.6321 5.84422 3.26752 5.69176 2.94602C5.54261 2.62453 5.30066 2.37263 4.96591 2.19034C4.63116 2.00473 4.18703 1.91193 3.63352 1.91193H1.46591V11H0.232955ZM11.2077 11.179C10.7238 11.179 10.2847 11.0878 9.89027 10.9055C9.49586 10.7199 9.18265 10.4531 8.95064 10.1051C8.71863 9.75379 8.60263 9.32955 8.60263 8.83239C8.60263 8.39489 8.6888 8.04025 8.86115 7.76847C9.0335 7.49337 9.26385 7.27794 9.5522 7.12216C9.84055 6.96638 10.1587 6.85038 10.5067 6.77415C10.8581 6.6946 11.2111 6.63163 11.5657 6.58523C12.0297 6.52557 12.4059 6.48082 12.6942 6.45099C12.9859 6.41785 13.198 6.36316 13.3306 6.28693C13.4665 6.2107 13.5344 6.07812 13.5344 5.8892V5.84943C13.5344 5.3589 13.4002 4.97775 13.1317 4.70597C12.8666 4.43419 12.4639 4.2983 11.9237 4.2983C11.3635 4.2983 10.9244 4.42093 10.6062 4.66619C10.288 4.91146 10.0643 5.1733 9.93501 5.4517L8.82138 5.05398C9.02024 4.58996 9.28539 4.22869 9.61683 3.97017C9.95159 3.70833 10.3162 3.52604 10.7106 3.4233C11.1083 3.31723 11.4994 3.2642 11.8839 3.2642C12.1291 3.2642 12.4109 3.29403 12.729 3.35369C13.0505 3.41004 13.3604 3.5277 13.6587 3.70668C13.9603 3.88565 14.2106 4.15578 14.4094 4.51705C14.6083 4.87831 14.7077 5.36222 14.7077 5.96875V11H13.5344V9.96591H13.4748C13.3952 10.1316 13.2627 10.3089 13.0771 10.4979C12.8915 10.6868 12.6445 10.8475 12.3363 10.9801C12.0281 11.1127 11.6519 11.179 11.2077 11.179ZM11.3867 10.125C11.8507 10.125 12.2418 10.0339 12.56 9.85156C12.8815 9.66927 13.1235 9.43395 13.2859 9.1456C13.4516 8.85724 13.5344 8.55398 13.5344 8.2358V7.16193C13.4847 7.22159 13.3754 7.27628 13.2063 7.32599C13.0406 7.3724 12.8484 7.41383 12.6296 7.45028C12.4142 7.48343 12.2037 7.51326 11.9982 7.53977C11.796 7.56297 11.632 7.58286 11.506 7.59943C11.2011 7.6392 10.9161 7.70384 10.6509 7.79332C10.3891 7.8795 10.177 8.01042 10.0146 8.18608C9.85547 8.35843 9.77592 8.59375 9.77592 8.89205C9.77592 9.29972 9.92673 9.60795 10.2283 9.81676C10.5333 10.0223 10.9194 10.125 11.3867 10.125ZM19.9316 14.0227C19.3649 14.0227 18.8777 13.9498 18.47 13.804C18.0623 13.6615 17.7226 13.4725 17.4508 13.2372C17.1824 13.0052 16.9686 12.7566 16.8095 12.4915L17.7441 11.8352C17.8502 11.9744 17.9844 12.1335 18.1468 12.3125C18.3092 12.4948 18.5313 12.6522 18.813 12.7848C19.0981 12.9207 19.4709 12.9886 19.9316 12.9886C20.5481 12.9886 21.0569 12.8395 21.4579 12.5412C21.859 12.2429 22.0595 11.7756 22.0595 11.1392V9.58807H21.96C21.8739 9.72727 21.7512 9.89962 21.5922 10.1051C21.4364 10.3073 21.211 10.4879 20.916 10.647C20.6243 10.8028 20.2299 10.8807 19.7328 10.8807C19.1163 10.8807 18.5628 10.7348 18.0723 10.4432C17.585 10.1515 17.1989 9.72727 16.9139 9.17045C16.6322 8.61364 16.4913 7.9375 16.4913 7.14205C16.4913 6.35985 16.6288 5.67874 16.9039 5.09872C17.179 4.51539 17.5618 4.06463 18.0524 3.74645C18.5429 3.42495 19.1097 3.2642 19.7527 3.2642C20.2498 3.2642 20.6442 3.34706 20.9359 3.51278C21.2309 3.67519 21.4563 3.8608 21.612 4.0696C21.7711 4.27509 21.8938 4.44413 21.9799 4.5767H22.0993V3.36364H23.2328V11.2188C23.2328 11.875 23.0836 12.4086 22.7853 12.8196C22.4904 13.2339 22.0926 13.5372 21.5922 13.7294C21.095 13.925 20.5415 14.0227 19.9316 14.0227ZM19.8919 9.8267C20.3625 9.8267 20.7602 9.71899 21.085 9.50355C21.4099 9.28812 21.6568 8.97822 21.8258 8.57386C21.9949 8.16951 22.0794 7.68561 22.0794 7.12216C22.0794 6.57197 21.9965 6.08641 21.8308 5.66548C21.6651 5.24455 21.4198 4.91477 21.095 4.67614C20.7702 4.4375 20.3691 4.31818 19.8919 4.31818C19.3947 4.31818 18.9804 4.44413 18.649 4.69602C18.3208 4.94792 18.0739 5.28598 17.9082 5.71023C17.7458 6.13447 17.6646 6.60511 17.6646 7.12216C17.6646 7.65246 17.7475 8.12145 17.9132 8.52912C18.0822 8.93348 18.3308 9.25166 18.6589 9.48366C18.9904 9.71236 19.4013 9.8267 19.8919 9.8267ZM28.5822 11.1591C27.8464 11.1591 27.2117 10.9967 26.6781 10.6719C26.1478 10.3438 25.7385 9.88636 25.4501 9.29972C25.1651 8.70975 25.0225 8.02367 25.0225 7.24148C25.0225 6.45928 25.1651 5.76989 25.4501 5.1733C25.7385 4.57339 26.1395 4.10606 26.6532 3.77131C27.1703 3.43324 27.7735 3.2642 28.4629 3.2642C28.8606 3.2642 29.2534 3.33049 29.6412 3.46307C30.0289 3.59564 30.3819 3.81108 30.7001 4.10938C31.0183 4.40436 31.2718 4.79545 31.4608 5.28267C31.6497 5.76989 31.7441 6.36979 31.7441 7.08239V7.57955H25.8578V6.56534H30.551C30.551 6.13447 30.4648 5.75 30.2924 5.41193C30.1234 5.07386 29.8815 4.80705 29.5666 4.61151C29.255 4.41596 28.8871 4.31818 28.4629 4.31818C27.9956 4.31818 27.5912 4.43419 27.2498 4.66619C26.9118 4.89489 26.6516 5.19318 26.4693 5.56108C26.287 5.92898 26.1958 6.32339 26.1958 6.74432V7.42045C26.1958 7.99716 26.2953 8.48603 26.4941 8.88707C26.6963 9.2848 26.9764 9.58807 27.3343 9.79688C27.6923 10.0024 28.1083 10.1051 28.5822 10.1051C28.8904 10.1051 29.1689 10.062 29.4174 9.97585C29.6693 9.88636 29.8864 9.75379 30.0687 9.57812C30.251 9.39915 30.3919 9.17708 30.4913 8.91193L31.6248 9.23011C31.5055 9.61458 31.305 9.95265 31.0233 10.2443C30.7415 10.5327 30.3935 10.758 29.9792 10.9205C29.5649 11.0795 29.0993 11.1591 28.5822 11.1591ZM41.2349 0.818182V11H39.6937V2.35938H39.6341L37.198 3.95028V2.47869L39.7385 0.818182H41.2349ZM51.1234 11.1591C50.434 11.1591 49.8291 10.995 49.3088 10.6669C48.7917 10.3388 48.3874 9.87973 48.0957 9.28977C47.8074 8.69981 47.6632 8.01042 47.6632 7.22159C47.6632 6.42614 47.8074 5.73177 48.0957 5.13849C48.3874 4.54522 48.7917 4.08452 49.3088 3.75639C49.8291 3.42827 50.434 3.2642 51.1234 3.2642C51.8128 3.2642 52.416 3.42827 52.9331 3.75639C53.4534 4.08452 53.8578 4.54522 54.1461 5.13849C54.4378 5.73177 54.5836 6.42614 54.5836 7.22159C54.5836 8.01042 54.4378 8.69981 54.1461 9.28977C53.8578 9.87973 53.4534 10.3388 52.9331 10.6669C52.416 10.995 51.8128 11.1591 51.1234 11.1591ZM51.1234 10.1051C51.6471 10.1051 52.0779 9.97088 52.416 9.70241C52.7541 9.43395 53.0043 9.08097 53.1667 8.64347C53.3291 8.20597 53.4103 7.73201 53.4103 7.22159C53.4103 6.71117 53.3291 6.23556 53.1667 5.79474C53.0043 5.35393 52.7541 4.99763 52.416 4.72585C52.0779 4.45407 51.6471 4.31818 51.1234 4.31818C50.5997 4.31818 50.1689 4.45407 49.8308 4.72585C49.4927 4.99763 49.2425 5.35393 49.0801 5.79474C48.9177 6.23556 48.8365 6.71117 48.8365 7.22159C48.8365 7.73201 48.9177 8.20597 49.0801 8.64347C49.2425 9.08097 49.4927 9.43395 49.8308 9.70241C50.1689 9.97088 50.5997 10.1051 51.1234 10.1051ZM59.7752 3.36364V4.35795H55.6587V3.36364H59.7752ZM56.8917 11V2.30966C56.8917 1.87216 56.9944 1.50758 57.1999 1.21591C57.4054 0.924242 57.6722 0.705492 58.0004 0.559658C58.3285 0.413825 58.6748 0.340908 59.0394 0.340908C59.3278 0.340908 59.5631 0.364109 59.7454 0.410511C59.9277 0.456912 60.0636 0.499999 60.1531 0.539772L59.815 1.55398C59.7553 1.53409 59.6725 1.50923 59.5664 1.4794C59.4637 1.44957 59.3278 1.43466 59.1587 1.43466C58.771 1.43466 58.4909 1.53243 58.3185 1.72798C58.1495 1.92353 58.065 2.21023 58.065 2.58807V11H56.8917ZM69.1255 0.818182V11H67.5843V2.35938H67.5247L65.0886 3.95028V2.47869L67.6291 0.818182H69.1255ZM75.4245 11.169C74.639 11.1657 73.9679 10.9586 73.411 10.5476C72.8542 10.1366 72.4283 9.53835 72.1333 8.75284C71.8384 7.96733 71.6909 7.02107 71.6909 5.91406C71.6909 4.81037 71.8384 3.86742 72.1333 3.08523C72.4316 2.30303 72.8592 1.70644 73.416 1.29545C73.9761 0.884469 74.6457 0.678977 75.4245 0.678977C76.2034 0.678977 76.8713 0.886126 77.4281 1.30043C77.9849 1.71141 78.4108 2.308 78.7058 3.0902C79.0041 3.86908 79.1532 4.81037 79.1532 5.91406C79.1532 7.02438 79.0057 7.9723 78.7108 8.75781C78.4158 9.54001 77.9899 10.1383 77.4331 10.5526C76.8762 10.9635 76.2067 11.169 75.4245 11.169ZM75.4245 9.84162C76.1139 9.84162 76.6525 9.50521 77.0403 8.83239C77.4314 8.15956 77.627 7.18679 77.627 5.91406C77.627 5.06889 77.5375 4.35464 77.3585 3.77131C77.1828 3.18466 76.9293 2.74053 76.5978 2.43892C76.2697 2.134 75.8786 1.98153 75.4245 1.98153C74.7385 1.98153 74.1999 2.3196 73.8088 2.99574C73.4177 3.67187 73.2205 4.64465 73.2172 5.91406C73.2172 6.76255 73.305 7.48011 73.4806 8.06676C73.6596 8.65009 73.9132 9.09257 74.2413 9.39418C74.5694 9.69247 74.9638 9.84162 75.4245 9.84162Z" fill="#48505E"/>
</svg>
