<svg width="84" height="15" viewBox="0 0 84 15" fill="none" xmlns="http://www.w3.org/2000/svg">
<path d="M0.79794 15V0.454545H3.43288V7.13778H3.61044L9.28516 0.454545H12.5025L6.87749 6.98153L12.5522 15H9.38459L5.0451 8.7642L3.43288 10.6676V15H0.79794ZM16.201 15H13.3885L18.5092 0.454545H21.7621L26.8899 15H24.0774L20.1925 3.4375H20.0788L16.201 15ZM16.2933 9.29688H23.9638V11.4134H16.2933V9.29688ZM40.7589 0.454545V15H38.4151L31.5614 5.09233H31.4407V15H28.8058V0.454545H31.1637L38.0103 10.3693H38.1381V0.454545H40.7589ZM43.63 15V0.454545H49.1982C50.2493 0.454545 51.1229 0.620265 51.8189 0.951704C52.5196 1.27841 53.0429 1.72585 53.3885 2.29403C53.7389 2.86222 53.9141 3.50616 53.9141 4.22585C53.9141 4.81771 53.8004 5.32434 53.5732 5.74574C53.3459 6.1624 53.0405 6.50095 52.657 6.76136C52.2734 7.02178 51.8449 7.20881 51.3714 7.32244V7.46449C51.8875 7.4929 52.3823 7.65151 52.8558 7.94034C53.334 8.22443 53.7247 8.62689 54.0277 9.14773C54.3307 9.66856 54.4822 10.2983 54.4822 11.0369C54.4822 11.7898 54.3 12.4669 53.9354 13.0682C53.5708 13.6648 53.0215 14.1359 52.2876 14.4815C51.5537 14.8272 50.6304 15 49.5178 15H43.63ZM46.2649 12.7983H49.0987C50.0552 12.7983 50.7441 12.616 51.1655 12.2514C51.5916 11.8821 51.8047 11.4086 51.8047 10.831C51.8047 10.4001 51.6982 10.0118 51.4851 9.66619C51.272 9.31581 50.969 9.04119 50.576 8.84233C50.183 8.63873 49.7143 8.53693 49.1697 8.53693H46.2649V12.7983ZM46.2649 6.64062H48.8714C49.326 6.64062 49.7356 6.55777 50.1001 6.39205C50.4647 6.22159 50.7512 5.98248 50.9595 5.67472C51.1726 5.36222 51.2791 4.9929 51.2791 4.56676C51.2791 4.00331 51.0803 3.5393 50.6825 3.17472C50.2895 2.81013 49.7048 2.62784 48.9283 2.62784H46.2649V6.64062ZM58.6424 15H55.8299L60.9506 0.454545H64.2035L69.3313 15H66.5188L62.6339 3.4375H62.5202L58.6424 15ZM58.7347 9.29688H66.4052V11.4134H58.7347V9.29688ZM83.2003 0.454545V15H80.8565L74.0028 5.09233H73.8821V15H71.2472V0.454545H73.6051L80.4517 10.3693H80.5795V0.454545H83.2003Z" fill="#1570EF"/>
</svg>
