<svg width="20" height="21" viewBox="0 0 20 21" fill="none" xmlns="http://www.w3.org/2000/svg">
<path d="M19.7275 18.9093L14.9402 14.1226C14.697 13.8795 14.3535 13.8025 14.0431 13.8844L13.016 12.8573C14.1747 11.5448 14.8846 9.82667 14.8846 7.94218C14.8846 3.83871 11.5462 0.5 7.44264 0.5C3.3385 0.5 -0.000213623 3.83871 -0.000213623 7.94285C-0.000213623 12.0467 3.3385 15.385 7.44264 15.385C9.32687 15.385 11.0449 14.6755 12.3577 13.5164L13.3848 14.5436C13.3029 14.854 13.3796 15.1972 13.6231 15.4406L18.4098 20.227C18.5921 20.4093 18.83 20.5 19.0686 20.5C19.3072 20.5 19.5454 20.409 19.7275 20.227C20.0912 19.8633 20.0912 19.2733 19.7275 18.9093L19.7275 18.9093ZM0.931713 7.94254C0.931713 4.35288 3.85214 1.43187 7.44239 1.43187C11.0326 1.43187 13.9527 4.35288 13.9527 7.94287C13.9527 11.5325 11.032 14.4532 7.44239 14.4532C3.8528 14.4532 0.931713 11.5325 0.931713 7.94254Z" fill="#858D9D"/>
</svg>
