<svg width="20" height="20" viewBox="0 0 20 20" fill="none" xmlns="http://www.w3.org/2000/svg">
<path d="M9.99992 0.000183105C4.48613 0.000183105 0 4.48631 0 10.0001C0 12.4654 0.898431 14.7233 2.38279 16.4684C2.4018 16.4977 2.4236 16.5254 2.44906 16.5508C2.45482 16.5566 2.46127 16.5603 2.46702 16.5657C4.30174 18.6679 6.99734 19.9998 10 19.9998C13.0027 19.9998 15.6982 18.6679 17.533 16.5657C17.5387 16.5604 17.5455 16.5564 17.5509 16.5508C17.5764 16.5254 17.5984 16.4973 17.6172 16.4684C19.1016 14.7231 20 12.4652 20 10.0001C20 4.48631 15.5139 0.000183105 10.0001 0.000183105H9.99992ZM9.99992 19C7.44414 19 5.13567 17.9276 3.49595 16.2111L4.18095 15.5261C4.84273 14.8645 5.72232 14.5 6.65758 14.5H13.3424C14.2776 14.5 15.1572 14.8645 15.8188 15.5259L16.5038 16.2109C14.8642 17.9274 12.5557 19 9.99983 19H9.99992ZM17.1561 15.4492L16.5259 14.819C15.6754 13.9685 14.5449 13.4999 13.3424 13.4999H6.65758C5.455 13.4999 4.32465 13.9685 3.47417 14.819L2.84395 15.4492C1.68829 13.9356 0.999992 12.047 0.999992 10.0001C0.999992 5.03769 5.03719 1.00022 9.99992 1.00022C14.9624 1.00022 18.9999 5.03742 18.9999 10.0001C18.9999 12.0471 18.3116 13.9357 17.1561 15.4492H17.1561ZM9.99992 4.50019C7.79449 4.50019 5.99986 6.2946 5.99986 8.50025C5.99986 10.7057 7.79427 12.5003 9.99992 12.5003C12.2054 12.5003 14 10.7059 14 8.50025C14 6.2946 12.2054 4.50019 9.99992 4.50019ZM9.99992 11.5001C8.34569 11.5001 6.99999 10.1544 6.99999 8.50021C6.99999 6.84598 8.34574 5.50027 9.99992 5.50027C11.6541 5.50027 12.9999 6.84602 12.9999 8.50021C12.9999 10.1544 11.6541 11.5001 9.99992 11.5001Z" fill="#5D6679"/>
</svg>
