<svg width="116" height="40" viewBox="0 0 116 40" fill="none" xmlns="http://www.w3.org/2000/svg">
<rect width="116" height="40" rx="4" fill="#1366D9"/>
<path d="M17.9787 25H16.348L20.0121 14.8182H21.7869L25.451 25H23.8203L20.9418 16.6676H20.8622L17.9787 25ZM18.2521 21.0128H23.5419V22.3054H18.2521V21.0128ZM29.5376 25.1491C28.9212 25.1491 28.371 24.9917 27.8871 24.6768C27.4065 24.3587 27.0286 23.9062 26.7536 23.3196C26.4818 22.7296 26.3459 22.022 26.3459 21.1967C26.3459 20.3714 26.4834 19.6655 26.7585 19.0788C27.0369 18.4922 27.4181 18.0431 27.902 17.7315C28.3859 17.42 28.9344 17.2642 29.5476 17.2642C30.0215 17.2642 30.4027 17.3438 30.6911 17.5028C30.9827 17.6586 31.2081 17.8409 31.3672 18.0497C31.5296 18.2585 31.6555 18.4425 31.745 18.6016H31.8345V14.8182H33.321V25H31.8693V23.8118H31.745C31.6555 23.9742 31.5263 24.1598 31.3572 24.3686C31.1915 24.5774 30.9628 24.7597 30.6712 24.9155C30.3795 25.0713 30.0017 25.1491 29.5376 25.1491ZM29.8658 23.8814C30.2933 23.8814 30.6546 23.7687 30.9496 23.5433C31.2479 23.3146 31.4732 22.9981 31.6257 22.5938C31.7815 22.1894 31.8594 21.7187 31.8594 21.1818C31.8594 20.6515 31.7831 20.1875 31.6307 19.7898C31.4782 19.392 31.2545 19.0821 30.9595 18.8601C30.6645 18.638 30.3 18.527 29.8658 18.527C29.4183 18.527 29.0455 18.643 28.7472 18.875C28.4489 19.107 28.2235 19.4235 28.071 19.8246C27.9219 20.2256 27.8473 20.678 27.8473 21.1818C27.8473 21.6922 27.9235 22.1513 28.076 22.5589C28.2285 22.9666 28.4538 23.2898 28.7521 23.5284C29.0537 23.7637 29.425 23.8814 29.8658 23.8814ZM38.3013 25.1491C37.6848 25.1491 37.1346 24.9917 36.6507 24.6768C36.1702 24.3587 35.7923 23.9062 35.5172 23.3196C35.2454 22.7296 35.1096 22.022 35.1096 21.1967C35.1096 20.3714 35.2471 19.6655 35.5222 19.0788C35.8006 18.4922 36.1818 18.0431 36.6657 17.7315C37.1496 17.42 37.6981 17.2642 38.3113 17.2642C38.7852 17.2642 39.1664 17.3438 39.4547 17.5028C39.7464 17.6586 39.9718 17.8409 40.1309 18.0497C40.2933 18.2585 40.4192 18.4425 40.5087 18.6016H40.5982V14.8182H42.0847V25H40.633V23.8118H40.5087C40.4192 23.9742 40.29 24.1598 40.1209 24.3686C39.9552 24.5774 39.7265 24.7597 39.4348 24.9155C39.1432 25.0713 38.7653 25.1491 38.3013 25.1491ZM38.6294 23.8814C39.057 23.8814 39.4183 23.7687 39.7132 23.5433C40.0115 23.3146 40.2369 22.9981 40.3894 22.5938C40.5452 22.1894 40.623 21.7187 40.623 21.1818C40.623 20.6515 40.5468 20.1875 40.3944 19.7898C40.2419 19.392 40.0182 19.0821 39.7232 18.8601C39.4282 18.638 39.0636 18.527 38.6294 18.527C38.182 18.527 37.8091 18.643 37.5108 18.875C37.2125 19.107 36.9872 19.4235 36.8347 19.8246C36.6855 20.2256 36.611 20.678 36.611 21.1818C36.611 21.6922 36.6872 22.1513 36.8397 22.5589C36.9921 22.9666 37.2175 23.2898 37.5158 23.5284C37.8174 23.7637 38.1886 23.8814 38.6294 23.8814ZM48.0307 25V14.8182H51.66C52.4521 14.8182 53.1084 14.9624 53.6287 15.2507C54.1491 15.5391 54.5385 15.9335 54.7971 16.4339C55.0556 16.9311 55.1848 17.4912 55.1848 18.1143C55.1848 18.7408 55.0539 19.3042 54.7921 19.8047C54.5336 20.3018 54.1425 20.6963 53.6188 20.9879C53.0984 21.2763 52.4438 21.4205 51.655 21.4205H49.1593V20.1179H51.5158C52.0163 20.1179 52.4223 20.0317 52.7338 19.8594C53.0454 19.6837 53.2741 19.4451 53.4199 19.1435C53.5658 18.8419 53.6387 18.4988 53.6387 18.1143C53.6387 17.7299 53.5658 17.3885 53.4199 17.0902C53.2741 16.7919 53.0437 16.5582 52.7289 16.3892C52.4173 16.2202 52.0063 16.1357 51.4959 16.1357H49.5669V25H48.0307ZM56.8665 25V17.3636H58.3033V18.5767H58.3828C58.522 18.1657 58.7673 17.8426 59.1186 17.6072C59.4732 17.3686 59.8743 17.2493 60.3217 17.2493C60.4145 17.2493 60.5239 17.2526 60.6499 17.2592C60.7791 17.2659 60.8802 17.2741 60.9531 17.2841V18.706C60.8935 18.6894 60.7874 18.6712 60.6349 18.6513C60.4825 18.6281 60.33 18.6165 60.1776 18.6165C59.8262 18.6165 59.513 18.6911 59.2379 18.8402C58.9661 18.986 58.7507 19.1899 58.5916 19.4517C58.4325 19.7102 58.353 20.0052 58.353 20.3366V25H56.8665ZM65.1827 25.1541C64.4668 25.1541 63.842 24.9901 63.3084 24.6619C62.7748 24.3338 62.3605 23.8748 62.0655 23.2848C61.7705 22.6948 61.623 22.0054 61.623 21.2166C61.623 20.4245 61.7705 19.7318 62.0655 19.1385C62.3605 18.5452 62.7748 18.0845 63.3084 17.7564C63.842 17.4283 64.4668 17.2642 65.1827 17.2642C65.8986 17.2642 66.5234 17.4283 67.057 17.7564C67.5906 18.0845 68.0049 18.5452 68.2999 19.1385C68.5949 19.7318 68.7424 20.4245 68.7424 21.2166C68.7424 22.0054 68.5949 22.6948 68.2999 23.2848C68.0049 23.8748 67.5906 24.3338 67.057 24.6619C66.5234 24.9901 65.8986 25.1541 65.1827 25.1541ZM65.1877 23.9062C65.6517 23.9062 66.0362 23.7836 66.3411 23.5384C66.646 23.2931 66.8714 22.9666 67.0172 22.5589C67.1664 22.1513 67.2409 21.7022 67.2409 21.2116C67.2409 20.7244 67.1664 20.277 67.0172 19.8693C66.8714 19.4583 66.646 19.1286 66.3411 18.88C66.0362 18.6314 65.6517 18.5071 65.1877 18.5071C64.7203 18.5071 64.3326 18.6314 64.0243 18.88C63.7194 19.1286 63.4924 19.4583 63.3432 19.8693C63.1974 20.277 63.1245 20.7244 63.1245 21.2116C63.1245 21.7022 63.1974 22.1513 63.3432 22.5589C63.4924 22.9666 63.7194 23.2931 64.0243 23.5384C64.3326 23.7836 64.7203 23.9062 65.1877 23.9062ZM73.2603 25.1491C72.6438 25.1491 72.0936 24.9917 71.6097 24.6768C71.1291 24.3587 70.7513 23.9062 70.4762 23.3196C70.2044 22.7296 70.0685 22.022 70.0685 21.1967C70.0685 20.3714 70.2061 19.6655 70.4812 19.0788C70.7596 18.4922 71.1407 18.0431 71.6246 17.7315C72.1085 17.42 72.6571 17.2642 73.2702 17.2642C73.7442 17.2642 74.1254 17.3438 74.4137 17.5028C74.7054 17.6586 74.9308 17.8409 75.0898 18.0497C75.2522 18.2585 75.3782 18.4425 75.4677 18.6016H75.5572V14.8182H77.0437V25H75.592V23.8118H75.4677C75.3782 23.9742 75.2489 24.1598 75.0799 24.3686C74.9142 24.5774 74.6855 24.7597 74.3938 24.9155C74.1022 25.0713 73.7243 25.1491 73.2603 25.1491ZM73.5884 23.8814C74.016 23.8814 74.3772 23.7687 74.6722 23.5433C74.9705 23.3146 75.1959 22.9981 75.3484 22.5938C75.5041 22.1894 75.582 21.7187 75.582 21.1818C75.582 20.6515 75.5058 20.1875 75.3533 19.7898C75.2009 19.392 74.9772 19.0821 74.6822 18.8601C74.3872 18.638 74.0226 18.527 73.5884 18.527C73.141 18.527 72.7681 18.643 72.4698 18.875C72.1715 19.107 71.9461 19.4235 71.7937 19.8246C71.6445 20.2256 71.57 20.678 71.57 21.1818C71.57 21.6922 71.6462 22.1513 71.7987 22.5589C71.9511 22.9666 72.1765 23.2898 72.4748 23.5284C72.7764 23.7637 73.1476 23.8814 73.5884 23.8814ZM84.0027 21.8331V17.3636H85.4941V25H84.0325V23.6776H83.9529C83.7773 24.0852 83.4956 24.425 83.1078 24.6967C82.7233 24.9652 82.2444 25.0994 81.671 25.0994C81.1805 25.0994 80.7463 24.9917 80.3684 24.7763C79.9939 24.5575 79.6989 24.2344 79.4835 23.8068C79.2714 23.3793 79.1653 22.8506 79.1653 22.2209V17.3636H80.6518V22.0419C80.6518 22.5623 80.796 22.9766 81.0843 23.2848C81.3727 23.593 81.7472 23.7472 82.2079 23.7472C82.4863 23.7472 82.7631 23.6776 83.0382 23.5384C83.3166 23.3991 83.5469 23.1887 83.7292 22.907C83.9148 22.6252 84.006 22.2673 84.0027 21.8331ZM90.7081 25.1541C89.969 25.1541 89.3326 24.9867 88.799 24.652C88.2687 24.3139 87.861 23.8482 87.576 23.255C87.291 22.6617 87.1484 21.9822 87.1484 21.2166C87.1484 20.4411 87.2943 19.7566 87.5859 19.1634C87.8776 18.5668 88.2886 18.1011 88.8189 17.7663C89.3492 17.4316 89.974 17.2642 90.6932 17.2642C91.2732 17.2642 91.7902 17.3719 92.2443 17.5874C92.6984 17.7995 93.0646 18.0978 93.343 18.4822C93.6248 18.8667 93.7921 19.3158 93.8452 19.8295H92.3984C92.3189 19.4716 92.1366 19.1634 91.8516 18.9048C91.5698 18.6463 91.192 18.517 90.718 18.517C90.3037 18.517 89.9408 18.6264 89.6293 18.8452C89.321 19.0606 89.0807 19.3688 88.9084 19.7699C88.736 20.1676 88.6499 20.6383 88.6499 21.1818C88.6499 21.7386 88.7344 22.2192 88.9034 22.6236C89.0724 23.0279 89.3111 23.3411 89.6193 23.5632C89.9309 23.7853 90.2971 23.8963 90.718 23.8963C90.9998 23.8963 91.255 23.8449 91.4837 23.7422C91.7157 23.6361 91.9096 23.4853 92.0653 23.2898C92.2244 23.0942 92.3355 22.8589 92.3984 22.5838H93.8452C93.7921 23.0777 93.6314 23.5185 93.3629 23.9062C93.0945 24.294 92.7348 24.599 92.2841 24.821C91.8366 25.0431 91.3113 25.1541 90.7081 25.1541ZM98.9995 17.3636V18.5568H94.8283V17.3636H98.9995ZM95.9469 15.5341H97.4334V22.7578C97.4334 23.0462 97.4765 23.2633 97.5627 23.4091C97.6489 23.5516 97.7599 23.6494 97.8958 23.7024C98.035 23.7521 98.1858 23.777 98.3482 23.777C98.4675 23.777 98.5719 23.7687 98.6614 23.7521C98.7509 23.7356 98.8205 23.7223 98.8702 23.7124L99.1387 24.9403C99.0525 24.9735 98.9299 25.0066 98.7708 25.0398C98.6117 25.0762 98.4128 25.0961 98.1742 25.0994C97.7831 25.1061 97.4185 25.0365 97.0804 24.8906C96.7424 24.7448 96.4689 24.5194 96.2601 24.2145C96.0513 23.9096 95.9469 23.5268 95.9469 23.0661V15.5341Z" fill="white"/>
</svg>
