<svg width="22" height="20" viewBox="0 0 22 20" fill="none" xmlns="http://www.w3.org/2000/svg">
<path d="M21.0102 13.5633L21.0109 13.5659L21.0109 13.5659C21.1775 14.1909 20.8186 14.8695 20.185 14.992L14.2478 16.5567C14.3216 17.7232 13.569 18.8123 12.4004 19.1164C11.2322 19.4433 10.0181 18.8702 9.50992 17.8297L8.53051 18.0967L8.52946 18.097C8.32195 18.1488 8.10627 18.0453 8.05193 17.8293C8.05188 17.8292 8.05184 17.829 8.0518 17.8288L4.05583 3.11525L2.15679 3.5901L2.14467 3.54159L2.15679 3.5901C1.66761 3.71241 1.13082 3.41954 0.984277 2.90645M21.0102 13.5633L1.03235 2.89272M21.0102 13.5633L21.0102 13.5631L20.5701 11.9419C20.57 11.9417 20.57 11.9416 20.5699 11.9414C20.5156 11.7254 20.2999 11.622 20.0924 11.6737L20.0919 11.6739L18.4481 12.1017L16.6072 5.26779C16.6072 5.26765 16.6071 5.26751 16.6071 5.26737C16.5528 5.05131 16.3371 4.94781 16.1296 4.9996L16.1287 4.99982L12.5385 5.96024L11.5554 2.32467C11.5553 2.32451 11.5553 2.32435 11.5553 2.3242C11.5009 2.10817 11.2852 2.00469 11.0777 2.05648L11.0771 2.05663L6.44408 3.27223M21.0102 13.5633L6.44408 3.27223M0.984277 2.90645L1.03235 2.89272M0.984277 2.90645C0.984277 2.90645 0.984277 2.90646 0.984278 2.90646L1.03235 2.89272M0.984277 2.90645C0.836952 2.39075 1.15686 1.87818 1.66749 1.73233L1.66916 1.73186L1.66917 1.73189L5.39939 0.805206M1.03235 2.89272C0.893352 2.40615 1.19449 1.91943 1.68123 1.78041L5.41224 0.853533M5.39939 0.805206C5.3991 0.805287 5.39882 0.805368 5.39853 0.80545L5.41224 0.853533M5.39939 0.805206L5.40019 0.805008L5.41224 0.853533M5.39939 0.805206C5.58712 0.752186 5.80093 0.859329 5.85458 1.07279L5.85448 1.07239L5.80618 1.08534M5.41224 0.853533C5.57437 0.807301 5.75979 0.899926 5.80618 1.08534M5.80618 1.08534L5.85468 1.0732M5.80618 1.08534L6.40866 3.33322L5.85468 1.0732M5.85468 1.0732L6.44408 3.27223M5.85468 1.0732L6.44408 3.27223M4.69548 2.5786L4.69555 2.57858L4.69466 2.5759C4.64281 2.42054 4.48733 2.2868 4.3228 2.2868H4.25329V2.28532L4.2414 2.28824L1.97039 2.84446L1.97038 2.84442L1.96856 2.84494C1.90035 2.86441 1.84749 2.85276 1.80878 2.82731C1.76892 2.80111 1.73981 2.75738 1.72648 2.70652C1.69967 2.60414 1.73901 2.49138 1.85679 2.45444L5.21445 1.60935L8.86283 15.0483C8.86287 15.0485 8.86291 15.0486 8.86296 15.0488C8.91729 15.2648 9.13298 15.3683 9.34049 15.3165L9.34094 15.3164L9.80717 15.1954C9.35522 15.7407 9.17721 16.4623 9.27208 17.1303L8.69195 17.2704L4.69548 2.5786ZM10.0948 17.2924L10.0947 17.2924C9.80182 16.3461 10.3422 15.3784 11.2879 15.1307L11.2884 15.1306C12.2798 14.8603 13.2479 15.5141 13.4277 16.4132L13.4277 16.4132L13.4279 16.4141C13.63 17.3353 13.0467 18.1691 12.1886 18.4177C11.287 18.6655 10.3646 18.1695 10.0948 17.2924ZM19.9754 14.2926L14.0636 15.8567C13.8149 15.2186 13.2794 14.7014 12.6324 14.4618C13.2561 14.2964 13.9238 14.1196 14.6118 13.9374C16.3835 13.4681 18.2904 12.9631 19.9301 12.5249L20.2647 13.7743L20.2648 13.7745C20.3272 14.0037 20.203 14.23 19.9764 14.2924C19.9762 14.2924 19.976 14.2925 19.9758 14.2925L19.9754 14.2926ZM17.7255 12.3125L9.50268 14.4884L7.74449 8.02668L15.9673 5.85078L17.7255 12.3125ZM6.65536 4.0176L10.9153 2.8846L11.7931 6.14822L7.53301 7.28122L6.65536 4.0176Z" fill="#1570EF" stroke="#1570EF" stroke-width="0.1"/>
</svg>
