<svg width="17" height="21" viewBox="0 0 17 21" fill="none" xmlns="http://www.w3.org/2000/svg">
<path d="M15.6773 0.846412C15.2276 0.396638 14.63 0.149203 13.9934 0.149203L2.56615 0.148925C1.92962 0.148925 1.33236 0.39636 0.882267 0.846134C0.432493 1.29591 0.185059 1.89346 0.185059 2.53002V17.7678C0.185059 18.4044 0.432493 19.0016 0.882267 19.4517C1.33204 19.9015 1.92959 20.1489 2.56615 20.1489H13.9949C14.6314 20.1489 15.2287 19.9015 15.6788 19.4517C16.1285 19.0019 16.376 18.4044 16.376 17.7678V2.53002C16.3748 1.89376 16.1274 1.29623 15.6776 0.846419L15.6773 0.846412ZM15.4229 17.7686C15.4229 18.5566 14.7825 19.197 13.9946 19.197H2.56585C1.77788 19.197 1.13747 18.5566 1.13747 17.7686V2.53008C1.13747 1.74211 1.7779 1.10171 2.56585 1.10171H13.9946C14.7825 1.10171 15.4229 1.74213 15.4229 2.53008V17.7686Z" fill="#5D6679"/>
</svg>
